<svg width="48" height="48" viewBox="0 0 48 48" fill="none" xmlns="http://www.w3.org/2000/svg">
<path d="M0 24C0 10.7452 10.7452 0 24 0V0C37.2548 0 48 10.7452 48 24V24C48 37.2548 37.2548 48 24 48V48C10.7452 48 0 37.2548 0 24V24Z" fill="black"/>
<path d="M14.848 29.66C14.1973 29.66 13.6053 29.548 13.072 29.324C12.5493 29.0893 12.096 28.7693 11.712 28.364C11.328 27.9587 11.0293 27.4947 10.816 26.972C10.6133 26.4493 10.512 25.8947 10.512 25.308C10.512 24.5187 10.688 23.7987 11.04 23.148C11.4027 22.4973 11.904 21.9747 12.544 21.58C13.1947 21.1853 13.9627 20.988 14.848 20.988C15.7013 20.988 16.4427 21.18 17.072 21.564C17.712 21.9373 18.1813 22.4387 18.48 23.068L16.768 23.612C16.576 23.26 16.304 22.988 15.952 22.796C15.6107 22.5933 15.232 22.492 14.816 22.492C14.3467 22.492 13.92 22.6147 13.536 22.86C13.1627 23.0947 12.864 23.4253 12.64 23.852C12.4267 24.268 12.32 24.7533 12.32 25.308C12.32 25.8413 12.432 26.3267 12.656 26.764C12.88 27.1907 13.1787 27.532 13.552 27.788C13.936 28.0333 14.3627 28.156 14.832 28.156C15.12 28.156 15.3973 28.108 15.664 28.012C15.9413 27.9053 16.1813 27.7667 16.384 27.596C16.5867 27.4147 16.7307 27.2173 16.816 27.004L18.544 27.516C18.3627 27.932 18.0907 28.3 17.728 28.62C17.376 28.94 16.9547 29.196 16.464 29.388C15.984 29.5693 15.4453 29.66 14.848 29.66ZM29.1135 18.14L21.3215 29.5H19.3695L27.1615 18.14H29.1135ZM33.598 29.66C32.9473 29.66 32.3553 29.548 31.822 29.324C31.2993 29.0893 30.846 28.7693 30.462 28.364C30.078 27.9587 29.7793 27.4947 29.566 26.972C29.3633 26.4493 29.262 25.8947 29.262 25.308C29.262 24.5187 29.438 23.7987 29.79 23.148C30.1527 22.4973 30.654 21.9747 31.294 21.58C31.9447 21.1853 32.7127 20.988 33.598 20.988C34.4513 20.988 35.1927 21.18 35.822 21.564C36.462 21.9373 36.9313 22.4387 37.23 23.068L35.518 23.612C35.326 23.26 35.054 22.988 34.702 22.796C34.3607 22.5933 33.982 22.492 33.566 22.492C33.0967 22.492 32.67 22.6147 32.286 22.86C31.9127 23.0947 31.614 23.4253 31.39 23.852C31.1767 24.268 31.07 24.7533 31.07 25.308C31.07 25.8413 31.182 26.3267 31.406 26.764C31.63 27.1907 31.9287 27.532 32.302 27.788C32.686 28.0333 33.1127 28.156 33.582 28.156C33.87 28.156 34.1473 28.108 34.414 28.012C34.6913 27.9053 34.9313 27.7667 35.134 27.596C35.3367 27.4147 35.4807 27.2173 35.566 27.004L37.294 27.516C37.1127 27.932 36.8407 28.3 36.478 28.62C36.126 28.94 35.7047 29.196 35.214 29.388C34.734 29.5693 34.1953 29.66 33.598 29.66Z" fill="#F3F4F6"/>
</svg>
